<?xml version="1.0" encoding="utf-8"?>
<!-- Generator: Adobe Illustrator 25.1.0, SVG Export Plug-In . SVG Version: 6.00 Build 0)  -->
<svg version="1.1" id="Слой_1" xmlns="http://www.w3.org/2000/svg" xmlns:xlink="http://www.w3.org/1999/xlink" x="0px" y="0px"
	 viewBox="0 0 1920 1080" style="enable-background:new 0 0 1920 1080;" xml:space="preserve">
<style type="text/css">
	.st0{fill:#312783;}
	.st1{fill:#FFED00;}
	.st2{fill:#662483;}
	.st3{fill:#F39200;}
	.st4{fill:#008D36;}
	.st5{fill:#E6332A;}
</style>
<rect x="266.93" y="86.44" transform="matrix(-1.836970e-16 1 -1 -1.836970e-16 410.3433 -180.0538)" class="st0" width="56.54" height="57.41"/>
<rect x="204.77" y="86.44" transform="matrix(-1.836970e-16 1 -1 -1.836970e-16 348.1865 -117.897)" class="st0" width="56.54" height="57.41"/>
<rect x="204.77" y="147.16" transform="matrix(-1.836970e-16 1 -1 -1.836970e-16 408.9053 -57.1782)" class="st0" width="56.54" height="57.41"/>
<rect x="204.77" y="207.88" transform="matrix(-1.836970e-16 1 -1 -1.836970e-16 469.6241 3.5406)" class="st0" width="56.54" height="57.41"/>
<rect x="208.53" y="399.5" class="st1" width="57.37" height="56.5"/>
<rect x="269.79" y="399.76" class="st1" width="57.37" height="56.5"/>
<rect x="208.53" y="458.89" class="st1" width="57.37" height="56.5"/>
<rect x="269.53" y="459.16" class="st1" width="57.37" height="56.5"/>
<rect x="1634.91" y="53.99" class="st2" width="57.37" height="56.5"/>
<rect x="1697.12" y="53.99" class="st2" width="57.37" height="56.5"/>
<rect x="1571.62" y="53.99" class="st2" width="57.37" height="56.5"/>
<rect x="1634.91" y="115.2" class="st2" width="57.37" height="56.5"/>
<rect x="1545.63" y="461.42" transform="matrix(3.318471e-07 -1 1 3.318471e-07 1083.7672 2064.0244)" class="st3" width="56.54" height="57.41"/>
<rect x="1607.78" y="461.42" transform="matrix(3.318470e-07 -1 1 3.318470e-07 1145.924 2126.1814)" class="st3" width="56.54" height="57.41"/>
<rect x="1607.78" y="400.7" transform="matrix(3.318471e-07 -1 1 3.318471e-07 1206.6428 2065.4624)" class="st3" width="56.54" height="57.41"/>
<rect x="1607.78" y="339.98" transform="matrix(3.318471e-07 -1 1 3.318471e-07 1267.3617 2004.7437)" class="st3" width="56.54" height="57.41"/>
<rect x="606.21" y="323.71" class="st4" width="57.37" height="56.5"/>
<rect x="480.17" y="385.98" class="st4" width="57.37" height="56.5"/>
<rect x="542.92" y="323.71" class="st4" width="57.37" height="56.5"/>
<rect x="543.46" y="385.98" class="st4" width="57.37" height="56.5"/>
<rect x="1299.81" y="182.84" transform="matrix(-1 -4.421275e-11 4.421275e-11 -1 2656.9883 422.1739)" class="st5" width="57.37" height="56.5"/>
<rect x="1425.84" y="245.11" transform="matrix(-1 -4.422830e-11 4.422830e-11 -1 2909.0603 546.7256)" class="st5" width="57.37" height="56.5"/>
<rect x="1363.1" y="182.84" transform="matrix(-1 -4.422830e-11 4.422830e-11 -1 2783.5652 422.1739)" class="st5" width="57.37" height="56.5"/>
<rect x="1362.56" y="245.11" transform="matrix(-1 -4.424429e-11 4.424429e-11 -1 2782.4834 546.7256)" class="st5" width="57.37" height="56.5"/>
</svg>
