<?xml version="1.0" encoding="utf-8"?>
<!-- Generator: Adobe Illustrator 25.1.0, SVG Export Plug-In . SVG Version: 6.00 Build 0)  -->
<svg version="1.1" id="Слой_1" xmlns="http://www.w3.org/2000/svg" xmlns:xlink="http://www.w3.org/1999/xlink" x="0px" y="0px"
	 viewBox="0 0 1920 1080" style="enable-background:new 0 0 1920 1080;" xml:space="preserve">
<style type="text/css">
	.st0{fill:#BE1622;}
	.st1{fill:#E94E1B;}
	.st2{fill:#FCEA10;}
	.st3{fill:#3AAA35;}
	.st4{fill:#009FE3;}
</style>
<rect x="60.66" y="93.12" class="st0" width="221.36" height="45.68"/>
<rect x="297.83" y="93.12" class="st0" width="221.36" height="45.68"/>
<line class="st0" x1="297.83" y1="156.36" x2="519.19" y2="156.36"/>
<rect x="60.66" y="93.12" class="st0" width="221.36" height="45.68"/>
<rect x="297.83" y="93.12" class="st0" width="221.36" height="45.68"/>
<rect x="59.78" y="156.36" class="st1" width="221.36" height="45.68"/>
<rect x="296.95" y="156.36" class="st1" width="221.36" height="45.68"/>
<rect x="59.78" y="219.61" class="st2" width="221.36" height="45.68"/>
<rect x="296.95" y="219.61" class="st2" width="221.36" height="45.68"/>
<rect x="59.78" y="282.85" class="st3" width="221.36" height="45.68"/>
<rect x="296.95" y="282.85" class="st3" width="221.36" height="45.68"/>
<rect x="1402.43" y="84.33" class="st0" width="221.36" height="45.68"/>
<rect x="1639.6" y="84.33" class="st0" width="221.36" height="45.68"/>
<rect x="1401.55" y="147.58" class="st1" width="221.36" height="45.68"/>
<rect x="1638.72" y="147.58" class="st1" width="221.36" height="45.68"/>
<rect x="1401.55" y="210.82" class="st2" width="221.36" height="45.68"/>
<rect x="1638.72" y="210.82" class="st2" width="221.36" height="45.68"/>
<rect x="1401.55" y="274.07" class="st3" width="221.36" height="45.68"/>
<rect x="1638.72" y="274.07" class="st3" width="221.36" height="45.68"/>
<rect x="150.26" y="409.34" class="st4" width="263.52" height="36.89"/>
<rect x="1506.96" y="409.34" class="st4" width="263.52" height="36.89"/>
</svg>
